<svg width="1440" height="800" viewBox="0 0 1440 800" fill="none" xmlns="http://www.w3.org/2000/svg">
<g clip-path="url(#clip0_22_2212)">
<rect width="1440" height="800" fill="#E1FF8F"/>
<rect width="1440" height="800" fill="#E1FF8F"/>
<path d="M1094.79 -10L1171 78.3799L854 153" stroke="#202027" stroke-linecap="round"/>
<path d="M1561.68 48.4063C1571.11 51.0311 1833.52 161.965 1833.52 161.965L1555.11 191.848L1730.99 417.661L1483.04 263.413L1457.77 524.856L1387.88 249.531L1154.94 380.493L1315.41 188.266L1030.63 175.289L1298.3 95.0268L1099.4 -134.041L1379.04 -2.49627L1443.03 -256.31L1471.77 -1.95158L1726.48 -177.398L1561.68 48.4063Z" fill="#BCEC30" stroke="#202027" stroke-miterlimit="10" stroke-linecap="round"/>
<path d="M1085.08 254H1209L1067 433" stroke="#202027" stroke-linecap="round"/>
<path d="M1225 458.046L1338.76 379L1444.88 797" stroke="#202027" stroke-linecap="round"/>
<path d="M1303.16 468L1247 526.765L1327 594L1303.16 468Z" fill="#BCEC30" stroke="#202027" stroke-linecap="round"/>
<path d="M1345 663L1379 787" stroke="#202027" stroke-linecap="round"/>
<path d="M98.7285 114.976L98.8086 115.191L99.0244 115.271L118.559 122.5L99.0244 129.729L98.8086 129.809L98.7285 130.024L91.5 149.559L84.2715 130.024L84.1914 129.809L83.9756 129.729L64.4404 122.5L83.9756 115.271L84.1914 115.191L84.2715 114.976L91.5 95.4404L98.7285 114.976Z" fill="#BCEC30" stroke="#202027"/>
<path d="M971.027 551.677L971.107 551.893L971.323 551.973L983.559 556.5L971.323 561.027L971.107 561.107L971.027 561.323L966.5 573.559L961.973 561.323L961.893 561.107L961.677 561.027L949.44 556.5L961.677 551.973L961.893 551.893L961.973 551.677L966.5 539.44L971.027 551.677Z" fill="#BCEC30" stroke="#202027"/>
<path d="M177.758 81.9473L177.838 82.1621L178.053 82.2422L189.559 86.5L178.053 90.7578L177.838 90.8379L177.758 91.0527L173.5 102.559L169.242 91.0527L169.162 90.8379L168.947 90.7578L157.44 86.5L168.947 82.2422L169.162 82.1621L169.242 81.9473L173.5 70.4404L177.758 81.9473Z" stroke="#202027"/>
<path d="M1065.24 598.465L1065.32 598.681L1065.54 598.76L1094.56 609.5L1065.54 620.24L1065.32 620.319L1065.24 620.535L1054.5 649.559L1043.76 620.535L1043.68 620.319L1043.46 620.24L1014.44 609.5L1043.46 598.76L1043.68 598.681L1043.76 598.465L1054.5 569.44L1065.24 598.465Z" stroke="#202027"/>
</g>
<defs>
<clipPath id="clip0_22_2212">
<rect width="1440" height="800" fill="white"/>
</clipPath>
</defs>
</svg>
